<svg width="17" height="9" viewBox="0 0 17 9" fill="none" xmlns="http://www.w3.org/2000/svg">
<path fill-rule="evenodd" clip-rule="evenodd" d="M16.7326 0.179824C16.6722 0.122822 16.6003 0.0775973 16.5213 0.0467401C16.4422 0.0158829 16.3574 0 16.2718 0C16.1862 0 16.1015 0.0158829 16.0224 0.0467401C15.9433 0.0775973 15.8715 0.122822 15.8111 0.179824L8.46191 7.09275L1.11277 0.179824C1.05225 0.122914 0.980417 0.077771 0.901356 0.0469718C0.822294 0.0161727 0.737556 0.00032047 0.65198 0.00032047C0.566404 0.00032047 0.481666 0.0161727 0.402604 0.0469718C0.323542 0.077771 0.251705 0.122914 0.191194 0.179824C0.130683 0.236733 0.0826823 0.304294 0.0499339 0.37865C0.0171854 0.453006 0.000330595 0.5327 0.000330595 0.613183C0.000330595 0.693665 0.0171854 0.773359 0.0499339 0.847715C0.0826823 0.922071 0.130683 0.989632 0.191194 1.04654L8.00112 8.3916C8.06158 8.44861 8.1334 8.49383 8.21247 8.52469C8.29154 8.55554 8.3763 8.57143 8.46191 8.57143C8.54751 8.57143 8.63228 8.55554 8.71135 8.52469C8.79042 8.49383 8.86224 8.44861 8.92269 8.3916L16.7326 1.04654C16.7932 0.989684 16.8413 0.922139 16.8741 0.847776C16.9069 0.773413 16.9238 0.693693 16.9238 0.613183C16.9238 0.532672 16.9069 0.452952 16.8741 0.378589C16.8413 0.304226 16.7932 0.236681 16.7326 0.179824Z" fill="#000000"/>
</svg>
