<svg width="100" height="100" viewBox="0 0 100 100" fill="none" xmlns="http://www.w3.org/2000/svg">
<path d="M44.1667 57.5L35.1042 48.4375C34.3403 47.6736 33.4028 47.2917 32.2917 47.2917C31.1806 47.2917 30.2084 47.7083 29.375 48.5417C28.6112 49.3056 28.2292 50.2778 28.2292 51.4583C28.2292 52.6389 28.6112 53.6111 29.375 54.375L41.25 66.25C42.0139 67.0139 42.9862 67.3958 44.1667 67.3958C45.3473 67.3958 46.3195 67.0139 47.0834 66.25L70.7292 42.6042C71.4931 41.8403 71.875 40.9028 71.875 39.7917C71.875 38.6806 71.4584 37.7083 70.625 36.875C69.8612 36.1111 68.8889 35.7292 67.7084 35.7292C66.5278 35.7292 65.5556 36.1111 64.7917 36.875L44.1667 57.5ZM50 91.6667C44.2362 91.6667 38.8195 90.5722 33.75 88.3833C28.6806 86.1972 24.2709 83.2292 20.5209 79.4792C16.7709 75.7292 13.8028 71.3195 11.6167 66.25C9.42782 61.1806 8.33337 55.7639 8.33337 50C8.33337 44.2361 9.42782 38.8195 11.6167 33.75C13.8028 28.6806 16.7709 24.2708 20.5209 20.5208C24.2709 16.7708 28.6806 13.8014 33.75 11.6125C38.8195 9.4264 44.2362 8.33334 50 8.33334C55.7639 8.33334 61.1806 9.4264 66.25 11.6125C71.3195 13.8014 75.7292 16.7708 79.4792 20.5208C83.2292 24.2708 86.1973 28.6806 88.3834 33.75C90.5723 38.8195 91.6667 44.2361 91.6667 50C91.6667 55.7639 90.5723 61.1806 88.3834 66.25C86.1973 71.3195 83.2292 75.7292 79.4792 79.4792C75.7292 83.2292 71.3195 86.1972 66.25 88.3833C61.1806 90.5722 55.7639 91.6667 50 91.6667Z" fill="#49D69B"/>
</svg>
