<svg width="24" height="24" viewBox="0 0 24 24" fill="none" xmlns="http://www.w3.org/2000/svg">
<path d="M0.75 14.85C0.948912 14.85 1.13968 14.929 1.28033 15.0696C1.42098 15.2103 1.5 15.4011 1.5 15.6V19.35C1.5 19.7478 1.65804 20.1293 1.93934 20.4106C2.22064 20.6919 2.60218 20.85 3 20.85H21C21.3978 20.85 21.7794 20.6919 22.0607 20.4106C22.342 20.1293 22.5 19.7478 22.5 19.35V15.6C22.5 15.4011 22.579 15.2103 22.7197 15.0696C22.8603 14.929 23.0511 14.85 23.25 14.85C23.4489 14.85 23.6397 14.929 23.7803 15.0696C23.921 15.2103 24 15.4011 24 15.6V19.35C24 20.1456 23.6839 20.9087 23.1213 21.4713C22.5587 22.0339 21.7956 22.35 21 22.35H3C2.20435 22.35 1.44129 22.0339 0.87868 21.4713C0.316071 20.9087 0 20.1456 0 19.35V15.6C0 15.4011 0.0790176 15.2103 0.21967 15.0696C0.360322 14.929 0.551088 14.85 0.75 14.85Z" fill="black"/>
<path d="M11.469 1.719C11.5387 1.64915 11.6214 1.59374 11.7126 1.55593C11.8037 1.51812 11.9014 1.49866 12 1.49866C12.0987 1.49866 12.1963 1.51812 12.2875 1.55593C12.3786 1.59374 12.4613 1.64915 12.531 1.719L17.031 6.219C17.1718 6.35983 17.2509 6.55083 17.2509 6.75C17.2509 6.94916 17.1718 7.14017 17.031 7.281C16.8902 7.42183 16.6992 7.50095 16.5 7.50095C16.3008 7.50095 16.1098 7.42183 15.969 7.281L12.75 4.0605V17.25C12.75 17.4489 12.671 17.6397 12.5303 17.7803C12.3897 17.921 12.1989 18 12 18C11.8011 18 11.6103 17.921 11.4697 17.7803C11.329 17.6397 11.25 17.4489 11.25 17.25V4.0605L8.031 7.281C7.96127 7.35073 7.87849 7.40604 7.78738 7.44378C7.69627 7.48152 7.59862 7.50095 7.5 7.50095C7.40139 7.50095 7.30374 7.48152 7.21263 7.44378C7.12152 7.40604 7.03873 7.35073 6.969 7.281C6.89927 7.21127 6.84396 7.12848 6.80622 7.03737C6.76848 6.94626 6.74905 6.84861 6.74905 6.75C6.74905 6.65138 6.76848 6.55373 6.80622 6.46262C6.84396 6.37151 6.89927 6.28873 6.969 6.219L11.469 1.719Z" fill="black"/>
</svg>
