<svg width="100" height="100" viewBox="0 0 100 100" fill="none" xmlns="http://www.w3.org/2000/svg">
<mask id="mask0_2708_84" style="mask-type:luminance" maskUnits="userSpaceOnUse" x="0" y="0" width="100" height="100">
<path d="M100 0H0V100H100V0Z" fill="white"/>
</mask>
<g mask="url(#mask0_2708_84)">
<path d="M100 50C100 63.261 94.732 75.9785 85.3555 85.3555C75.9785 94.732 63.261 100 50 100C36.7392 100 24.0215 94.732 14.6447 85.3555C5.26785 75.9785 0 63.261 0 50C0 36.7392 5.26785 24.0215 14.6447 14.6447C24.0215 5.26785 36.7392 0 50 0C63.261 0 75.9785 5.26785 85.3555 14.6447C94.732 24.0215 100 36.7392 100 50ZM50 25C49.2101 25.0005 48.4289 25.1664 47.707 25.4871C46.985 25.8078 46.3383 26.2761 45.8084 26.8619C45.2785 27.4478 44.8771 28.1381 44.6303 28.8885C44.3834 29.6389 44.2965 30.4327 44.375 31.2188L46.5625 53.1375C46.636 53.9985 47.03 54.8005 47.6665 55.385C48.303 55.9695 49.1358 56.294 50 56.294C50.864 56.294 51.697 55.9695 52.3335 55.385C52.97 54.8005 53.364 53.9985 53.4375 53.1375L55.625 31.2188C55.7035 30.4327 55.6165 29.6389 55.3695 28.8885C55.123 28.1381 54.7215 27.4478 54.1915 26.8619C53.6615 26.2761 53.015 25.8078 52.293 25.4871C51.571 25.1664 50.79 25.0005 50 25ZM50.0125 62.5C48.3549 62.5 46.7652 63.1585 45.5931 64.3305C44.421 65.5025 43.7625 67.0925 43.7625 68.75C43.7625 70.4075 44.421 71.9975 45.5931 73.1695C46.7652 74.3415 48.3549 75 50.0125 75C51.67 75 53.26 74.3415 54.432 73.1695C55.604 71.9975 56.2625 70.4075 56.2625 68.75C56.2625 67.0925 55.604 65.5025 54.432 64.3305C53.26 63.1585 51.67 62.5 50.0125 62.5Z" fill="#FF4547"/>
</g>
</svg>
